<mxfile host="Electron" agent="Mozilla/5.0 (Windows NT 10.0; Win64; x64) AppleWebKit/537.36 (KHTML, like Gecko) draw.io/24.7.8 Chrome/128.0.6613.36 Electron/32.0.1 Safari/537.36" version="24.7.8">
  <diagram name="Page-1" id="9c096ad6-e400-ecc8-3e38-643d2caac077">
    <mxGraphModel dx="636" dy="748" grid="1" gridSize="10" guides="1" tooltips="1" connect="1" arrows="1" fold="1" page="1" pageScale="1.5" pageWidth="1169" pageHeight="826" background="none" math="0" shadow="0">
      <root>
        <mxCell id="0" style=";html=1;" />
        <mxCell id="1" style=";html=1;" parent="0" />
        <mxCell id="XEt0RwcjZD9UKayn3xR3-100" style="rounded=0;orthogonalLoop=1;jettySize=auto;html=1;exitX=1;exitY=0.5;exitDx=0;exitDy=0;entryX=0;entryY=0.5;entryDx=0;entryDy=0;strokeWidth=3;" edge="1" parent="1" source="XEt0RwcjZD9UKayn3xR3-6" target="XEt0RwcjZD9UKayn3xR3-86">
          <mxGeometry relative="1" as="geometry" />
        </mxCell>
        <mxCell id="XEt0RwcjZD9UKayn3xR3-6" value="" style="swimlane;startSize=0;" vertex="1" parent="1">
          <mxGeometry x="50" y="270" width="200" height="210" as="geometry" />
        </mxCell>
        <mxCell id="XEt0RwcjZD9UKayn3xR3-7" value="" style="rounded=0;whiteSpace=wrap;html=1;" vertex="1" parent="XEt0RwcjZD9UKayn3xR3-6">
          <mxGeometry y="50" width="200" height="110" as="geometry" />
        </mxCell>
        <mxCell id="XEt0RwcjZD9UKayn3xR3-8" value="" style="rounded=0;whiteSpace=wrap;html=1;" vertex="1" parent="XEt0RwcjZD9UKayn3xR3-6">
          <mxGeometry y="160" width="70" height="50" as="geometry" />
        </mxCell>
        <mxCell id="XEt0RwcjZD9UKayn3xR3-9" value="" style="rounded=0;whiteSpace=wrap;html=1;" vertex="1" parent="XEt0RwcjZD9UKayn3xR3-6">
          <mxGeometry x="70" y="160" width="60" height="50" as="geometry" />
        </mxCell>
        <mxCell id="XEt0RwcjZD9UKayn3xR3-10" value="" style="rounded=0;whiteSpace=wrap;html=1;" vertex="1" parent="XEt0RwcjZD9UKayn3xR3-6">
          <mxGeometry x="130" y="160" width="70" height="50" as="geometry" />
        </mxCell>
        <mxCell id="XEt0RwcjZD9UKayn3xR3-11" value="" style="rounded=0;whiteSpace=wrap;html=1;" vertex="1" parent="XEt0RwcjZD9UKayn3xR3-6">
          <mxGeometry width="70" height="50" as="geometry" />
        </mxCell>
        <mxCell id="XEt0RwcjZD9UKayn3xR3-12" value="" style="rounded=0;whiteSpace=wrap;html=1;" vertex="1" parent="XEt0RwcjZD9UKayn3xR3-6">
          <mxGeometry x="70" width="60" height="50" as="geometry" />
        </mxCell>
        <mxCell id="XEt0RwcjZD9UKayn3xR3-13" value="" style="rounded=0;whiteSpace=wrap;html=1;" vertex="1" parent="XEt0RwcjZD9UKayn3xR3-6">
          <mxGeometry x="130" width="70" height="50" as="geometry" />
        </mxCell>
        <mxCell id="XEt0RwcjZD9UKayn3xR3-14" value="1" style="text;html=1;align=center;verticalAlign=middle;whiteSpace=wrap;rounded=0;" vertex="1" parent="XEt0RwcjZD9UKayn3xR3-6">
          <mxGeometry x="70" y="90" width="60" height="30" as="geometry" />
        </mxCell>
        <mxCell id="XEt0RwcjZD9UKayn3xR3-15" value="0" style="text;html=1;align=center;verticalAlign=middle;whiteSpace=wrap;rounded=0;" vertex="1" parent="XEt0RwcjZD9UKayn3xR3-6">
          <mxGeometry x="5" y="10" width="60" height="30" as="geometry" />
        </mxCell>
        <mxCell id="XEt0RwcjZD9UKayn3xR3-16" value="10" style="text;html=1;align=center;verticalAlign=middle;whiteSpace=wrap;rounded=0;" vertex="1" parent="XEt0RwcjZD9UKayn3xR3-6">
          <mxGeometry x="70" y="10" width="60" height="30" as="geometry" />
        </mxCell>
        <mxCell id="XEt0RwcjZD9UKayn3xR3-17" value="10" style="text;html=1;align=center;verticalAlign=middle;whiteSpace=wrap;rounded=0;" vertex="1" parent="XEt0RwcjZD9UKayn3xR3-6">
          <mxGeometry x="135" y="10" width="60" height="30" as="geometry" />
        </mxCell>
        <mxCell id="XEt0RwcjZD9UKayn3xR3-18" value="0" style="text;html=1;align=center;verticalAlign=middle;whiteSpace=wrap;rounded=0;" vertex="1" parent="XEt0RwcjZD9UKayn3xR3-6">
          <mxGeometry x="5" y="170" width="60" height="30" as="geometry" />
        </mxCell>
        <mxCell id="XEt0RwcjZD9UKayn3xR3-19" value="0" style="text;html=1;align=center;verticalAlign=middle;whiteSpace=wrap;rounded=0;" vertex="1" parent="XEt0RwcjZD9UKayn3xR3-6">
          <mxGeometry x="70" y="170" width="60" height="30" as="geometry" />
        </mxCell>
        <mxCell id="XEt0RwcjZD9UKayn3xR3-20" value="10" style="text;html=1;align=center;verticalAlign=middle;whiteSpace=wrap;rounded=0;" vertex="1" parent="XEt0RwcjZD9UKayn3xR3-6">
          <mxGeometry x="135" y="170" width="60" height="30" as="geometry" />
        </mxCell>
        <mxCell id="XEt0RwcjZD9UKayn3xR3-52" style="rounded=0;orthogonalLoop=1;jettySize=auto;html=1;exitX=1;exitY=0.5;exitDx=0;exitDy=0;entryX=0;entryY=0.5;entryDx=0;entryDy=0;strokeColor=#FF0019;strokeWidth=3;" edge="1" parent="1" source="XEt0RwcjZD9UKayn3xR3-21" target="XEt0RwcjZD9UKayn3xR3-37">
          <mxGeometry relative="1" as="geometry" />
        </mxCell>
        <mxCell id="XEt0RwcjZD9UKayn3xR3-21" value="" style="swimlane;startSize=0;" vertex="1" parent="1">
          <mxGeometry x="330" y="160" width="200" height="210" as="geometry" />
        </mxCell>
        <mxCell id="XEt0RwcjZD9UKayn3xR3-22" value="" style="rounded=0;whiteSpace=wrap;html=1;" vertex="1" parent="XEt0RwcjZD9UKayn3xR3-21">
          <mxGeometry y="50" width="200" height="110" as="geometry" />
        </mxCell>
        <mxCell id="XEt0RwcjZD9UKayn3xR3-23" value="" style="rounded=0;whiteSpace=wrap;html=1;" vertex="1" parent="XEt0RwcjZD9UKayn3xR3-21">
          <mxGeometry y="160" width="70" height="50" as="geometry" />
        </mxCell>
        <mxCell id="XEt0RwcjZD9UKayn3xR3-24" value="" style="rounded=0;whiteSpace=wrap;html=1;" vertex="1" parent="XEt0RwcjZD9UKayn3xR3-21">
          <mxGeometry x="70" y="160" width="60" height="50" as="geometry" />
        </mxCell>
        <mxCell id="XEt0RwcjZD9UKayn3xR3-25" value="" style="rounded=0;whiteSpace=wrap;html=1;" vertex="1" parent="XEt0RwcjZD9UKayn3xR3-21">
          <mxGeometry x="130" y="160" width="70" height="50" as="geometry" />
        </mxCell>
        <mxCell id="XEt0RwcjZD9UKayn3xR3-26" value="" style="rounded=0;whiteSpace=wrap;html=1;" vertex="1" parent="XEt0RwcjZD9UKayn3xR3-21">
          <mxGeometry width="70" height="50" as="geometry" />
        </mxCell>
        <mxCell id="XEt0RwcjZD9UKayn3xR3-27" value="" style="rounded=0;whiteSpace=wrap;html=1;" vertex="1" parent="XEt0RwcjZD9UKayn3xR3-21">
          <mxGeometry x="70" width="60" height="50" as="geometry" />
        </mxCell>
        <mxCell id="XEt0RwcjZD9UKayn3xR3-28" value="" style="rounded=0;whiteSpace=wrap;html=1;" vertex="1" parent="XEt0RwcjZD9UKayn3xR3-21">
          <mxGeometry x="130" width="70" height="50" as="geometry" />
        </mxCell>
        <mxCell id="XEt0RwcjZD9UKayn3xR3-29" value="2" style="text;html=1;align=center;verticalAlign=middle;whiteSpace=wrap;rounded=0;" vertex="1" parent="XEt0RwcjZD9UKayn3xR3-21">
          <mxGeometry x="70" y="90" width="60" height="30" as="geometry" />
        </mxCell>
        <mxCell id="XEt0RwcjZD9UKayn3xR3-30" value="10" style="text;html=1;align=center;verticalAlign=middle;whiteSpace=wrap;rounded=0;" vertex="1" parent="XEt0RwcjZD9UKayn3xR3-21">
          <mxGeometry x="5" y="10" width="60" height="30" as="geometry" />
        </mxCell>
        <mxCell id="XEt0RwcjZD9UKayn3xR3-31" value="10" style="text;html=1;align=center;verticalAlign=middle;whiteSpace=wrap;rounded=0;" vertex="1" parent="XEt0RwcjZD9UKayn3xR3-21">
          <mxGeometry x="70" y="10" width="60" height="30" as="geometry" />
        </mxCell>
        <mxCell id="XEt0RwcjZD9UKayn3xR3-32" value="20" style="text;html=1;align=center;verticalAlign=middle;whiteSpace=wrap;rounded=0;" vertex="1" parent="XEt0RwcjZD9UKayn3xR3-21">
          <mxGeometry x="135" y="10" width="60" height="30" as="geometry" />
        </mxCell>
        <mxCell id="XEt0RwcjZD9UKayn3xR3-33" value="10" style="text;html=1;align=center;verticalAlign=middle;whiteSpace=wrap;rounded=0;" vertex="1" parent="XEt0RwcjZD9UKayn3xR3-21">
          <mxGeometry x="5" y="170" width="60" height="30" as="geometry" />
        </mxCell>
        <mxCell id="XEt0RwcjZD9UKayn3xR3-34" value="0" style="text;html=1;align=center;verticalAlign=middle;whiteSpace=wrap;rounded=0;" vertex="1" parent="XEt0RwcjZD9UKayn3xR3-21">
          <mxGeometry x="70" y="170" width="60" height="30" as="geometry" />
        </mxCell>
        <mxCell id="XEt0RwcjZD9UKayn3xR3-35" value="20" style="text;html=1;align=center;verticalAlign=middle;whiteSpace=wrap;rounded=0;" vertex="1" parent="XEt0RwcjZD9UKayn3xR3-21">
          <mxGeometry x="135" y="170" width="60" height="30" as="geometry" />
        </mxCell>
        <mxCell id="XEt0RwcjZD9UKayn3xR3-36" value="" style="endArrow=classic;html=1;rounded=0;exitX=1;exitY=0.5;exitDx=0;exitDy=0;entryX=0;entryY=0.5;entryDx=0;entryDy=0;strokeColor=#FF0019;strokeWidth=3;" edge="1" parent="1" source="XEt0RwcjZD9UKayn3xR3-7" target="XEt0RwcjZD9UKayn3xR3-21">
          <mxGeometry width="50" height="50" relative="1" as="geometry">
            <mxPoint x="730" y="710" as="sourcePoint" />
            <mxPoint x="780" y="660" as="targetPoint" />
          </mxGeometry>
        </mxCell>
        <mxCell id="XEt0RwcjZD9UKayn3xR3-37" value="" style="swimlane;startSize=0;" vertex="1" parent="1">
          <mxGeometry x="600" y="50" width="200" height="210" as="geometry" />
        </mxCell>
        <mxCell id="XEt0RwcjZD9UKayn3xR3-38" value="" style="rounded=0;whiteSpace=wrap;html=1;" vertex="1" parent="XEt0RwcjZD9UKayn3xR3-37">
          <mxGeometry y="50" width="200" height="110" as="geometry" />
        </mxCell>
        <mxCell id="XEt0RwcjZD9UKayn3xR3-39" value="" style="rounded=0;whiteSpace=wrap;html=1;" vertex="1" parent="XEt0RwcjZD9UKayn3xR3-37">
          <mxGeometry y="160" width="70" height="50" as="geometry" />
        </mxCell>
        <mxCell id="XEt0RwcjZD9UKayn3xR3-40" value="" style="rounded=0;whiteSpace=wrap;html=1;" vertex="1" parent="XEt0RwcjZD9UKayn3xR3-37">
          <mxGeometry x="70" y="160" width="60" height="50" as="geometry" />
        </mxCell>
        <mxCell id="XEt0RwcjZD9UKayn3xR3-41" value="" style="rounded=0;whiteSpace=wrap;html=1;" vertex="1" parent="XEt0RwcjZD9UKayn3xR3-37">
          <mxGeometry x="130" y="160" width="70" height="50" as="geometry" />
        </mxCell>
        <mxCell id="XEt0RwcjZD9UKayn3xR3-42" value="" style="rounded=0;whiteSpace=wrap;html=1;" vertex="1" parent="XEt0RwcjZD9UKayn3xR3-37">
          <mxGeometry width="70" height="50" as="geometry" />
        </mxCell>
        <mxCell id="XEt0RwcjZD9UKayn3xR3-43" value="" style="rounded=0;whiteSpace=wrap;html=1;" vertex="1" parent="XEt0RwcjZD9UKayn3xR3-37">
          <mxGeometry x="70" width="60" height="50" as="geometry" />
        </mxCell>
        <mxCell id="XEt0RwcjZD9UKayn3xR3-44" value="" style="rounded=0;whiteSpace=wrap;html=1;" vertex="1" parent="XEt0RwcjZD9UKayn3xR3-37">
          <mxGeometry x="130" width="70" height="50" as="geometry" />
        </mxCell>
        <mxCell id="XEt0RwcjZD9UKayn3xR3-45" value="3" style="text;html=1;align=center;verticalAlign=middle;whiteSpace=wrap;rounded=0;" vertex="1" parent="XEt0RwcjZD9UKayn3xR3-37">
          <mxGeometry x="70" y="90" width="60" height="30" as="geometry" />
        </mxCell>
        <mxCell id="XEt0RwcjZD9UKayn3xR3-46" value="20" style="text;html=1;align=center;verticalAlign=middle;whiteSpace=wrap;rounded=0;" vertex="1" parent="XEt0RwcjZD9UKayn3xR3-37">
          <mxGeometry x="5" y="10" width="60" height="30" as="geometry" />
        </mxCell>
        <mxCell id="XEt0RwcjZD9UKayn3xR3-47" value="6" style="text;html=1;align=center;verticalAlign=middle;whiteSpace=wrap;rounded=0;" vertex="1" parent="XEt0RwcjZD9UKayn3xR3-37">
          <mxGeometry x="70" y="10" width="60" height="30" as="geometry" />
        </mxCell>
        <mxCell id="XEt0RwcjZD9UKayn3xR3-48" value="26" style="text;html=1;align=center;verticalAlign=middle;whiteSpace=wrap;rounded=0;" vertex="1" parent="XEt0RwcjZD9UKayn3xR3-37">
          <mxGeometry x="135" y="10" width="60" height="30" as="geometry" />
        </mxCell>
        <mxCell id="XEt0RwcjZD9UKayn3xR3-49" value="20" style="text;html=1;align=center;verticalAlign=middle;whiteSpace=wrap;rounded=0;" vertex="1" parent="XEt0RwcjZD9UKayn3xR3-37">
          <mxGeometry x="5" y="170" width="60" height="30" as="geometry" />
        </mxCell>
        <mxCell id="XEt0RwcjZD9UKayn3xR3-50" value="0" style="text;html=1;align=center;verticalAlign=middle;whiteSpace=wrap;rounded=0;" vertex="1" parent="XEt0RwcjZD9UKayn3xR3-37">
          <mxGeometry x="70" y="170" width="60" height="30" as="geometry" />
        </mxCell>
        <mxCell id="XEt0RwcjZD9UKayn3xR3-51" value="26" style="text;html=1;align=center;verticalAlign=middle;whiteSpace=wrap;rounded=0;" vertex="1" parent="XEt0RwcjZD9UKayn3xR3-37">
          <mxGeometry x="135" y="170" width="60" height="30" as="geometry" />
        </mxCell>
        <mxCell id="XEt0RwcjZD9UKayn3xR3-133" style="rounded=0;orthogonalLoop=1;jettySize=auto;html=1;exitX=1;exitY=0.5;exitDx=0;exitDy=0;entryX=0.004;entryY=0.49;entryDx=0;entryDy=0;entryPerimeter=0;strokeWidth=3;" edge="1" parent="1" source="XEt0RwcjZD9UKayn3xR3-69" target="XEt0RwcjZD9UKayn3xR3-117">
          <mxGeometry relative="1" as="geometry">
            <mxPoint x="910" y="290" as="targetPoint" />
          </mxGeometry>
        </mxCell>
        <mxCell id="XEt0RwcjZD9UKayn3xR3-69" value="" style="swimlane;startSize=0;" vertex="1" parent="1">
          <mxGeometry x="600" y="280" width="200" height="210" as="geometry" />
        </mxCell>
        <mxCell id="XEt0RwcjZD9UKayn3xR3-70" value="" style="rounded=0;whiteSpace=wrap;html=1;" vertex="1" parent="XEt0RwcjZD9UKayn3xR3-69">
          <mxGeometry y="50" width="200" height="110" as="geometry" />
        </mxCell>
        <mxCell id="XEt0RwcjZD9UKayn3xR3-71" value="" style="rounded=0;whiteSpace=wrap;html=1;" vertex="1" parent="XEt0RwcjZD9UKayn3xR3-69">
          <mxGeometry y="160" width="70" height="50" as="geometry" />
        </mxCell>
        <mxCell id="XEt0RwcjZD9UKayn3xR3-72" value="" style="rounded=0;whiteSpace=wrap;html=1;" vertex="1" parent="XEt0RwcjZD9UKayn3xR3-69">
          <mxGeometry x="70" y="160" width="60" height="50" as="geometry" />
        </mxCell>
        <mxCell id="XEt0RwcjZD9UKayn3xR3-73" value="" style="rounded=0;whiteSpace=wrap;html=1;" vertex="1" parent="XEt0RwcjZD9UKayn3xR3-69">
          <mxGeometry x="130" y="160" width="70" height="50" as="geometry" />
        </mxCell>
        <mxCell id="XEt0RwcjZD9UKayn3xR3-74" value="" style="rounded=0;whiteSpace=wrap;html=1;" vertex="1" parent="XEt0RwcjZD9UKayn3xR3-69">
          <mxGeometry width="70" height="50" as="geometry" />
        </mxCell>
        <mxCell id="XEt0RwcjZD9UKayn3xR3-75" value="" style="rounded=0;whiteSpace=wrap;html=1;" vertex="1" parent="XEt0RwcjZD9UKayn3xR3-69">
          <mxGeometry x="70" width="60" height="50" as="geometry" />
        </mxCell>
        <mxCell id="XEt0RwcjZD9UKayn3xR3-76" value="" style="rounded=0;whiteSpace=wrap;html=1;" vertex="1" parent="XEt0RwcjZD9UKayn3xR3-69">
          <mxGeometry x="130" width="70" height="50" as="geometry" />
        </mxCell>
        <mxCell id="XEt0RwcjZD9UKayn3xR3-77" value="4" style="text;html=1;align=center;verticalAlign=middle;whiteSpace=wrap;rounded=0;" vertex="1" parent="XEt0RwcjZD9UKayn3xR3-69">
          <mxGeometry x="70" y="90" width="60" height="30" as="geometry" />
        </mxCell>
        <mxCell id="XEt0RwcjZD9UKayn3xR3-78" value="20" style="text;html=1;align=center;verticalAlign=middle;whiteSpace=wrap;rounded=0;" vertex="1" parent="XEt0RwcjZD9UKayn3xR3-69">
          <mxGeometry x="5" y="10" width="60" height="30" as="geometry" />
        </mxCell>
        <mxCell id="XEt0RwcjZD9UKayn3xR3-79" value="2" style="text;html=1;align=center;verticalAlign=middle;whiteSpace=wrap;rounded=0;" vertex="1" parent="XEt0RwcjZD9UKayn3xR3-69">
          <mxGeometry x="70" y="10" width="60" height="30" as="geometry" />
        </mxCell>
        <mxCell id="XEt0RwcjZD9UKayn3xR3-80" value="22" style="text;html=1;align=center;verticalAlign=middle;whiteSpace=wrap;rounded=0;" vertex="1" parent="XEt0RwcjZD9UKayn3xR3-69">
          <mxGeometry x="135" y="10" width="60" height="30" as="geometry" />
        </mxCell>
        <mxCell id="XEt0RwcjZD9UKayn3xR3-81" value="24" style="text;html=1;align=center;verticalAlign=middle;whiteSpace=wrap;rounded=0;" vertex="1" parent="XEt0RwcjZD9UKayn3xR3-69">
          <mxGeometry x="5" y="170" width="60" height="30" as="geometry" />
        </mxCell>
        <mxCell id="XEt0RwcjZD9UKayn3xR3-82" value="4" style="text;html=1;align=center;verticalAlign=middle;whiteSpace=wrap;rounded=0;" vertex="1" parent="XEt0RwcjZD9UKayn3xR3-69">
          <mxGeometry x="70" y="170" width="60" height="30" as="geometry" />
        </mxCell>
        <mxCell id="XEt0RwcjZD9UKayn3xR3-83" value="26" style="text;html=1;align=center;verticalAlign=middle;whiteSpace=wrap;rounded=0;" vertex="1" parent="XEt0RwcjZD9UKayn3xR3-69">
          <mxGeometry x="135" y="170" width="60" height="30" as="geometry" />
        </mxCell>
        <mxCell id="XEt0RwcjZD9UKayn3xR3-84" style="rounded=0;orthogonalLoop=1;jettySize=auto;html=1;exitX=1;exitY=0.5;exitDx=0;exitDy=0;entryX=0;entryY=0.5;entryDx=0;entryDy=0;strokeWidth=3;" edge="1" parent="1" source="XEt0RwcjZD9UKayn3xR3-22" target="XEt0RwcjZD9UKayn3xR3-70">
          <mxGeometry relative="1" as="geometry" />
        </mxCell>
        <mxCell id="XEt0RwcjZD9UKayn3xR3-85" value="" style="swimlane;startSize=0;" vertex="1" parent="1">
          <mxGeometry x="600" y="520" width="200" height="210" as="geometry" />
        </mxCell>
        <mxCell id="XEt0RwcjZD9UKayn3xR3-86" value="" style="rounded=0;whiteSpace=wrap;html=1;" vertex="1" parent="XEt0RwcjZD9UKayn3xR3-85">
          <mxGeometry y="50" width="200" height="110" as="geometry" />
        </mxCell>
        <mxCell id="XEt0RwcjZD9UKayn3xR3-87" value="" style="rounded=0;whiteSpace=wrap;html=1;" vertex="1" parent="XEt0RwcjZD9UKayn3xR3-85">
          <mxGeometry y="160" width="70" height="50" as="geometry" />
        </mxCell>
        <mxCell id="XEt0RwcjZD9UKayn3xR3-88" value="" style="rounded=0;whiteSpace=wrap;html=1;" vertex="1" parent="XEt0RwcjZD9UKayn3xR3-85">
          <mxGeometry x="70" y="160" width="60" height="50" as="geometry" />
        </mxCell>
        <mxCell id="XEt0RwcjZD9UKayn3xR3-89" value="" style="rounded=0;whiteSpace=wrap;html=1;" vertex="1" parent="XEt0RwcjZD9UKayn3xR3-85">
          <mxGeometry x="130" y="160" width="70" height="50" as="geometry" />
        </mxCell>
        <mxCell id="XEt0RwcjZD9UKayn3xR3-90" value="" style="rounded=0;whiteSpace=wrap;html=1;" vertex="1" parent="XEt0RwcjZD9UKayn3xR3-85">
          <mxGeometry width="70" height="50" as="geometry" />
        </mxCell>
        <mxCell id="XEt0RwcjZD9UKayn3xR3-91" value="" style="rounded=0;whiteSpace=wrap;html=1;" vertex="1" parent="XEt0RwcjZD9UKayn3xR3-85">
          <mxGeometry x="70" width="60" height="50" as="geometry" />
        </mxCell>
        <mxCell id="XEt0RwcjZD9UKayn3xR3-92" value="" style="rounded=0;whiteSpace=wrap;html=1;" vertex="1" parent="XEt0RwcjZD9UKayn3xR3-85">
          <mxGeometry x="130" width="70" height="50" as="geometry" />
        </mxCell>
        <mxCell id="XEt0RwcjZD9UKayn3xR3-93" value="5" style="text;html=1;align=center;verticalAlign=middle;whiteSpace=wrap;rounded=0;" vertex="1" parent="XEt0RwcjZD9UKayn3xR3-85">
          <mxGeometry x="70" y="90" width="60" height="30" as="geometry" />
        </mxCell>
        <mxCell id="XEt0RwcjZD9UKayn3xR3-94" value="10" style="text;html=1;align=center;verticalAlign=middle;whiteSpace=wrap;rounded=0;" vertex="1" parent="XEt0RwcjZD9UKayn3xR3-85">
          <mxGeometry x="5" y="10" width="60" height="30" as="geometry" />
        </mxCell>
        <mxCell id="XEt0RwcjZD9UKayn3xR3-95" value="2" style="text;html=1;align=center;verticalAlign=middle;whiteSpace=wrap;rounded=0;" vertex="1" parent="XEt0RwcjZD9UKayn3xR3-85">
          <mxGeometry x="70" y="10" width="60" height="30" as="geometry" />
        </mxCell>
        <mxCell id="XEt0RwcjZD9UKayn3xR3-96" value="12" style="text;html=1;align=center;verticalAlign=middle;whiteSpace=wrap;rounded=0;" vertex="1" parent="XEt0RwcjZD9UKayn3xR3-85">
          <mxGeometry x="135" y="10" width="60" height="30" as="geometry" />
        </mxCell>
        <mxCell id="XEt0RwcjZD9UKayn3xR3-97" value="37" style="text;html=1;align=center;verticalAlign=middle;whiteSpace=wrap;rounded=0;" vertex="1" parent="XEt0RwcjZD9UKayn3xR3-85">
          <mxGeometry x="5" y="170" width="60" height="30" as="geometry" />
        </mxCell>
        <mxCell id="XEt0RwcjZD9UKayn3xR3-98" value="27" style="text;html=1;align=center;verticalAlign=middle;whiteSpace=wrap;rounded=0;" vertex="1" parent="XEt0RwcjZD9UKayn3xR3-85">
          <mxGeometry x="70" y="170" width="60" height="30" as="geometry" />
        </mxCell>
        <mxCell id="XEt0RwcjZD9UKayn3xR3-99" value="39" style="text;html=1;align=center;verticalAlign=middle;whiteSpace=wrap;rounded=0;" vertex="1" parent="XEt0RwcjZD9UKayn3xR3-85">
          <mxGeometry x="135" y="170" width="60" height="30" as="geometry" />
        </mxCell>
        <mxCell id="XEt0RwcjZD9UKayn3xR3-180" style="edgeStyle=orthogonalEdgeStyle;rounded=0;orthogonalLoop=1;jettySize=auto;html=1;exitX=1;exitY=0.5;exitDx=0;exitDy=0;strokeColor=#FF0019;strokeWidth=3;" edge="1" parent="1" source="XEt0RwcjZD9UKayn3xR3-117" target="XEt0RwcjZD9UKayn3xR3-151">
          <mxGeometry relative="1" as="geometry" />
        </mxCell>
        <mxCell id="XEt0RwcjZD9UKayn3xR3-117" value="" style="swimlane;startSize=0;" vertex="1" parent="1">
          <mxGeometry x="860" y="190" width="200" height="210" as="geometry" />
        </mxCell>
        <mxCell id="XEt0RwcjZD9UKayn3xR3-118" value="" style="rounded=0;whiteSpace=wrap;html=1;" vertex="1" parent="XEt0RwcjZD9UKayn3xR3-117">
          <mxGeometry y="50" width="200" height="110" as="geometry" />
        </mxCell>
        <mxCell id="XEt0RwcjZD9UKayn3xR3-119" value="" style="rounded=0;whiteSpace=wrap;html=1;" vertex="1" parent="XEt0RwcjZD9UKayn3xR3-117">
          <mxGeometry y="160" width="70" height="50" as="geometry" />
        </mxCell>
        <mxCell id="XEt0RwcjZD9UKayn3xR3-120" value="" style="rounded=0;whiteSpace=wrap;html=1;" vertex="1" parent="XEt0RwcjZD9UKayn3xR3-117">
          <mxGeometry x="70" y="160" width="60" height="50" as="geometry" />
        </mxCell>
        <mxCell id="XEt0RwcjZD9UKayn3xR3-121" value="" style="rounded=0;whiteSpace=wrap;html=1;" vertex="1" parent="XEt0RwcjZD9UKayn3xR3-117">
          <mxGeometry x="130" y="160" width="70" height="50" as="geometry" />
        </mxCell>
        <mxCell id="XEt0RwcjZD9UKayn3xR3-122" value="" style="rounded=0;whiteSpace=wrap;html=1;" vertex="1" parent="XEt0RwcjZD9UKayn3xR3-117">
          <mxGeometry width="70" height="50" as="geometry" />
        </mxCell>
        <mxCell id="XEt0RwcjZD9UKayn3xR3-123" value="" style="rounded=0;whiteSpace=wrap;html=1;" vertex="1" parent="XEt0RwcjZD9UKayn3xR3-117">
          <mxGeometry x="70" width="60" height="50" as="geometry" />
        </mxCell>
        <mxCell id="XEt0RwcjZD9UKayn3xR3-124" value="" style="rounded=0;whiteSpace=wrap;html=1;" vertex="1" parent="XEt0RwcjZD9UKayn3xR3-117">
          <mxGeometry x="130" width="70" height="50" as="geometry" />
        </mxCell>
        <mxCell id="XEt0RwcjZD9UKayn3xR3-125" value="6" style="text;html=1;align=center;verticalAlign=middle;whiteSpace=wrap;rounded=0;" vertex="1" parent="XEt0RwcjZD9UKayn3xR3-117">
          <mxGeometry x="70" y="90" width="60" height="30" as="geometry" />
        </mxCell>
        <mxCell id="XEt0RwcjZD9UKayn3xR3-126" value="26" style="text;html=1;align=center;verticalAlign=middle;whiteSpace=wrap;rounded=0;" vertex="1" parent="XEt0RwcjZD9UKayn3xR3-117">
          <mxGeometry x="5" y="10" width="60" height="30" as="geometry" />
        </mxCell>
        <mxCell id="XEt0RwcjZD9UKayn3xR3-127" value="10" style="text;html=1;align=center;verticalAlign=middle;whiteSpace=wrap;rounded=0;" vertex="1" parent="XEt0RwcjZD9UKayn3xR3-117">
          <mxGeometry x="70" y="10" width="60" height="30" as="geometry" />
        </mxCell>
        <mxCell id="XEt0RwcjZD9UKayn3xR3-128" value="36" style="text;html=1;align=center;verticalAlign=middle;whiteSpace=wrap;rounded=0;" vertex="1" parent="XEt0RwcjZD9UKayn3xR3-117">
          <mxGeometry x="135" y="10" width="60" height="30" as="geometry" />
        </mxCell>
        <mxCell id="XEt0RwcjZD9UKayn3xR3-129" value="26" style="text;html=1;align=center;verticalAlign=middle;whiteSpace=wrap;rounded=0;" vertex="1" parent="XEt0RwcjZD9UKayn3xR3-117">
          <mxGeometry x="5" y="170" width="60" height="30" as="geometry" />
        </mxCell>
        <mxCell id="XEt0RwcjZD9UKayn3xR3-130" value="0" style="text;html=1;align=center;verticalAlign=middle;whiteSpace=wrap;rounded=0;" vertex="1" parent="XEt0RwcjZD9UKayn3xR3-117">
          <mxGeometry x="70" y="170" width="60" height="30" as="geometry" />
        </mxCell>
        <mxCell id="XEt0RwcjZD9UKayn3xR3-131" value="36" style="text;html=1;align=center;verticalAlign=middle;whiteSpace=wrap;rounded=0;" vertex="1" parent="XEt0RwcjZD9UKayn3xR3-117">
          <mxGeometry x="135" y="170" width="60" height="30" as="geometry" />
        </mxCell>
        <mxCell id="XEt0RwcjZD9UKayn3xR3-132" style="rounded=0;orthogonalLoop=1;jettySize=auto;html=1;exitX=1;exitY=0.5;exitDx=0;exitDy=0;entryX=0;entryY=0.436;entryDx=0;entryDy=0;entryPerimeter=0;strokeColor=#FF0019;strokeWidth=3;" edge="1" parent="1" source="XEt0RwcjZD9UKayn3xR3-38" target="XEt0RwcjZD9UKayn3xR3-118">
          <mxGeometry relative="1" as="geometry" />
        </mxCell>
        <mxCell id="XEt0RwcjZD9UKayn3xR3-150" value="" style="swimlane;startSize=0;" vertex="1" parent="1">
          <mxGeometry x="1110" y="190" width="200" height="210" as="geometry" />
        </mxCell>
        <mxCell id="XEt0RwcjZD9UKayn3xR3-151" value="" style="rounded=0;whiteSpace=wrap;html=1;" vertex="1" parent="XEt0RwcjZD9UKayn3xR3-150">
          <mxGeometry y="50" width="200" height="110" as="geometry" />
        </mxCell>
        <mxCell id="XEt0RwcjZD9UKayn3xR3-152" value="" style="rounded=0;whiteSpace=wrap;html=1;" vertex="1" parent="XEt0RwcjZD9UKayn3xR3-150">
          <mxGeometry y="160" width="70" height="50" as="geometry" />
        </mxCell>
        <mxCell id="XEt0RwcjZD9UKayn3xR3-153" value="" style="rounded=0;whiteSpace=wrap;html=1;" vertex="1" parent="XEt0RwcjZD9UKayn3xR3-150">
          <mxGeometry x="70" y="160" width="60" height="50" as="geometry" />
        </mxCell>
        <mxCell id="XEt0RwcjZD9UKayn3xR3-154" value="" style="rounded=0;whiteSpace=wrap;html=1;" vertex="1" parent="XEt0RwcjZD9UKayn3xR3-150">
          <mxGeometry x="130" y="160" width="70" height="50" as="geometry" />
        </mxCell>
        <mxCell id="XEt0RwcjZD9UKayn3xR3-155" value="" style="rounded=0;whiteSpace=wrap;html=1;" vertex="1" parent="XEt0RwcjZD9UKayn3xR3-150">
          <mxGeometry width="70" height="50" as="geometry" />
        </mxCell>
        <mxCell id="XEt0RwcjZD9UKayn3xR3-156" value="" style="rounded=0;whiteSpace=wrap;html=1;" vertex="1" parent="XEt0RwcjZD9UKayn3xR3-150">
          <mxGeometry x="70" width="60" height="50" as="geometry" />
        </mxCell>
        <mxCell id="XEt0RwcjZD9UKayn3xR3-157" value="" style="rounded=0;whiteSpace=wrap;html=1;" vertex="1" parent="XEt0RwcjZD9UKayn3xR3-150">
          <mxGeometry x="130" width="70" height="50" as="geometry" />
        </mxCell>
        <mxCell id="XEt0RwcjZD9UKayn3xR3-158" value="7" style="text;html=1;align=center;verticalAlign=middle;whiteSpace=wrap;rounded=0;" vertex="1" parent="XEt0RwcjZD9UKayn3xR3-150">
          <mxGeometry x="70" y="90" width="60" height="30" as="geometry" />
        </mxCell>
        <mxCell id="XEt0RwcjZD9UKayn3xR3-159" value="36" style="text;html=1;align=center;verticalAlign=middle;whiteSpace=wrap;rounded=0;" vertex="1" parent="XEt0RwcjZD9UKayn3xR3-150">
          <mxGeometry x="5" y="10" width="60" height="30" as="geometry" />
        </mxCell>
        <mxCell id="XEt0RwcjZD9UKayn3xR3-160" value="3" style="text;html=1;align=center;verticalAlign=middle;whiteSpace=wrap;rounded=0;" vertex="1" parent="XEt0RwcjZD9UKayn3xR3-150">
          <mxGeometry x="70" y="10" width="60" height="30" as="geometry" />
        </mxCell>
        <mxCell id="XEt0RwcjZD9UKayn3xR3-161" value="39" style="text;html=1;align=center;verticalAlign=middle;whiteSpace=wrap;rounded=0;" vertex="1" parent="XEt0RwcjZD9UKayn3xR3-150">
          <mxGeometry x="135" y="10" width="60" height="30" as="geometry" />
        </mxCell>
        <mxCell id="XEt0RwcjZD9UKayn3xR3-162" value="36" style="text;html=1;align=center;verticalAlign=middle;whiteSpace=wrap;rounded=0;" vertex="1" parent="XEt0RwcjZD9UKayn3xR3-150">
          <mxGeometry x="5" y="170" width="60" height="30" as="geometry" />
        </mxCell>
        <mxCell id="XEt0RwcjZD9UKayn3xR3-163" value="0" style="text;html=1;align=center;verticalAlign=middle;whiteSpace=wrap;rounded=0;" vertex="1" parent="XEt0RwcjZD9UKayn3xR3-150">
          <mxGeometry x="70" y="170" width="60" height="30" as="geometry" />
        </mxCell>
        <mxCell id="XEt0RwcjZD9UKayn3xR3-164" value="39" style="text;html=1;align=center;verticalAlign=middle;whiteSpace=wrap;rounded=0;" vertex="1" parent="XEt0RwcjZD9UKayn3xR3-150">
          <mxGeometry x="135" y="170" width="60" height="30" as="geometry" />
        </mxCell>
        <mxCell id="XEt0RwcjZD9UKayn3xR3-165" value="" style="swimlane;startSize=0;" vertex="1" parent="1">
          <mxGeometry x="1390" y="330" width="200" height="210" as="geometry" />
        </mxCell>
        <mxCell id="XEt0RwcjZD9UKayn3xR3-166" value="" style="rounded=0;whiteSpace=wrap;html=1;" vertex="1" parent="XEt0RwcjZD9UKayn3xR3-165">
          <mxGeometry y="50" width="200" height="110" as="geometry" />
        </mxCell>
        <mxCell id="XEt0RwcjZD9UKayn3xR3-167" value="" style="rounded=0;whiteSpace=wrap;html=1;" vertex="1" parent="XEt0RwcjZD9UKayn3xR3-165">
          <mxGeometry y="160" width="70" height="50" as="geometry" />
        </mxCell>
        <mxCell id="XEt0RwcjZD9UKayn3xR3-168" value="" style="rounded=0;whiteSpace=wrap;html=1;" vertex="1" parent="XEt0RwcjZD9UKayn3xR3-165">
          <mxGeometry x="70" y="160" width="60" height="50" as="geometry" />
        </mxCell>
        <mxCell id="XEt0RwcjZD9UKayn3xR3-169" value="" style="rounded=0;whiteSpace=wrap;html=1;" vertex="1" parent="XEt0RwcjZD9UKayn3xR3-165">
          <mxGeometry x="130" y="160" width="70" height="50" as="geometry" />
        </mxCell>
        <mxCell id="XEt0RwcjZD9UKayn3xR3-170" value="" style="rounded=0;whiteSpace=wrap;html=1;" vertex="1" parent="XEt0RwcjZD9UKayn3xR3-165">
          <mxGeometry width="70" height="50" as="geometry" />
        </mxCell>
        <mxCell id="XEt0RwcjZD9UKayn3xR3-171" value="" style="rounded=0;whiteSpace=wrap;html=1;" vertex="1" parent="XEt0RwcjZD9UKayn3xR3-165">
          <mxGeometry x="70" width="60" height="50" as="geometry" />
        </mxCell>
        <mxCell id="XEt0RwcjZD9UKayn3xR3-172" value="" style="rounded=0;whiteSpace=wrap;html=1;" vertex="1" parent="XEt0RwcjZD9UKayn3xR3-165">
          <mxGeometry x="130" width="70" height="50" as="geometry" />
        </mxCell>
        <mxCell id="XEt0RwcjZD9UKayn3xR3-173" value="8" style="text;html=1;align=center;verticalAlign=middle;whiteSpace=wrap;rounded=0;" vertex="1" parent="XEt0RwcjZD9UKayn3xR3-165">
          <mxGeometry x="70" y="90" width="60" height="30" as="geometry" />
        </mxCell>
        <mxCell id="XEt0RwcjZD9UKayn3xR3-174" value="39" style="text;html=1;align=center;verticalAlign=middle;whiteSpace=wrap;rounded=0;" vertex="1" parent="XEt0RwcjZD9UKayn3xR3-165">
          <mxGeometry x="5" y="10" width="60" height="30" as="geometry" />
        </mxCell>
        <mxCell id="XEt0RwcjZD9UKayn3xR3-175" value="1" style="text;html=1;align=center;verticalAlign=middle;whiteSpace=wrap;rounded=0;" vertex="1" parent="XEt0RwcjZD9UKayn3xR3-165">
          <mxGeometry x="70" y="10" width="60" height="30" as="geometry" />
        </mxCell>
        <mxCell id="XEt0RwcjZD9UKayn3xR3-176" value="40" style="text;html=1;align=center;verticalAlign=middle;whiteSpace=wrap;rounded=0;" vertex="1" parent="XEt0RwcjZD9UKayn3xR3-165">
          <mxGeometry x="135" y="10" width="60" height="30" as="geometry" />
        </mxCell>
        <mxCell id="XEt0RwcjZD9UKayn3xR3-177" value="39" style="text;html=1;align=center;verticalAlign=middle;whiteSpace=wrap;rounded=0;" vertex="1" parent="XEt0RwcjZD9UKayn3xR3-165">
          <mxGeometry x="5" y="170" width="60" height="30" as="geometry" />
        </mxCell>
        <mxCell id="XEt0RwcjZD9UKayn3xR3-178" value="0" style="text;html=1;align=center;verticalAlign=middle;whiteSpace=wrap;rounded=0;" vertex="1" parent="XEt0RwcjZD9UKayn3xR3-165">
          <mxGeometry x="70" y="170" width="60" height="30" as="geometry" />
        </mxCell>
        <mxCell id="XEt0RwcjZD9UKayn3xR3-179" value="40" style="text;html=1;align=center;verticalAlign=middle;whiteSpace=wrap;rounded=0;" vertex="1" parent="XEt0RwcjZD9UKayn3xR3-165">
          <mxGeometry x="135" y="170" width="60" height="30" as="geometry" />
        </mxCell>
        <mxCell id="XEt0RwcjZD9UKayn3xR3-181" style="rounded=0;orthogonalLoop=1;jettySize=auto;html=1;exitX=1;exitY=0.5;exitDx=0;exitDy=0;entryX=0;entryY=0.5;entryDx=0;entryDy=0;strokeWidth=3;" edge="1" parent="1" source="XEt0RwcjZD9UKayn3xR3-86" target="XEt0RwcjZD9UKayn3xR3-166">
          <mxGeometry relative="1" as="geometry" />
        </mxCell>
        <mxCell id="XEt0RwcjZD9UKayn3xR3-182" style="rounded=0;orthogonalLoop=1;jettySize=auto;html=1;exitX=1;exitY=0.5;exitDx=0;exitDy=0;entryX=-0.003;entryY=0.43;entryDx=0;entryDy=0;entryPerimeter=0;strokeColor=#FF0019;strokeWidth=3;" edge="1" parent="1" source="XEt0RwcjZD9UKayn3xR3-150" target="XEt0RwcjZD9UKayn3xR3-166">
          <mxGeometry relative="1" as="geometry" />
        </mxCell>
      </root>
    </mxGraphModel>
  </diagram>
</mxfile>
